<svg width="402" height="186" viewBox="0 0 402 186" fill="none" xmlns="http://www.w3.org/2000/svg">
<path d="M380.022 164.078L380.358 106.579C379.189 101.372 376.234 99.3883 374.902 99.0471L365.402 98.9916C362.605 98.5752 364.556 101.153 365.882 102.494L365.847 108.494L365.513 165.493C366.671 172.7 369.957 175.186 371.455 175.528L381.455 175.587C380.664 173.982 380.17 167.246 380.022 164.078Z" fill="#E00A17"/>
<path d="M333.707 132.307L333.76 123.307C336.592 117.723 340.614 119.68 342.271 121.357C344.266 122.168 343.377 131.697 342.683 136.359C341.869 138.755 332.647 142.634 328.137 144.274C317.307 149.411 317.541 160.713 319.011 165.721C322.157 174.94 327.616 176.272 329.953 175.786C337.552 175.83 342.158 169.19 343.511 165.865C343.88 171.067 346.963 174.052 348.458 174.894L359.458 174.958C358.265 173.751 357.992 169.116 358.005 166.949L358.207 132.45C359.446 125.657 355.115 119.598 352.794 117.418C345.627 111.776 334.82 112.98 330.312 114.287C319.898 116.626 318.233 127.883 318.701 133.219C318.666 139.219 323.653 141.415 326.152 141.763C331.763 139.796 333.527 134.639 333.707 132.307Z" fill="#E00A17"/>
<path d="M343.04 160.862L343.163 139.862L334.113 148.309C328.478 154.277 331.374 160.794 333.526 163.306C339.104 166.939 342.193 163.19 343.04 160.862Z" fill="white"/>
<path d="M287.518 164.537L287.605 149.537L308.669 138.66C314.286 135.893 312.742 126.184 311.269 121.675C305.323 112.44 295.832 110.752 291.83 111.061C277.824 112.18 273.264 122.453 272.734 127.45L272.562 156.95C273.317 164.554 276.157 169.137 277.483 170.479C283.459 174.514 290.955 175.224 293.956 175.075C306.349 176.348 311.176 166.009 312.041 160.681C313.704 149.89 308.124 146.491 305.126 146.14C297.514 148.095 296.882 159.259 297.517 164.596C293.875 171.774 289.333 167.548 287.518 164.537Z" fill="#E00A17"/>
<path d="M288.266 122.041L288.132 145.04C291.336 144.259 295.837 138.419 297.687 135.596L297.769 121.596C293.406 115.171 289.616 119.215 288.266 122.041Z" fill="white"/>
<path d="M235.808 114.734L226.308 114.678C225.508 114.674 226.628 117.014 227.288 118.184L226.96 174.183C232.624 174.716 243.753 175.481 242.96 174.277C242.167 173.072 241.978 171.104 241.983 170.271L242.179 136.772C249.44 126.414 251.914 125.162 252.243 125.83C252.185 135.83 257.504 138.361 260.17 138.377C266.575 137.614 267.562 128.42 267.255 123.918C264.916 113.504 256.312 114.187 252.302 115.83C249.897 116.616 244.573 126.452 242.211 131.272C242.696 116.874 238.144 114.248 235.808 114.734Z" fill="#E00A17"/>
<path d="M189.914 96.4651L179.914 96.4066C178.714 96.3996 180.401 98.7429 181.394 99.9154L181.215 130.415C173.601 132.77 172.339 137.696 172.66 139.865C172.639 143.465 173.971 143.706 174.639 143.377C176.668 138.588 179.835 138.407 181.166 138.915L181.037 160.914C183.374 171.728 194.958 174.496 200.458 174.528C214.455 175.01 219.337 166.805 220.028 162.642C222.907 149.059 216.627 145.622 213.127 145.602C206.316 147.562 205.217 158.722 205.519 164.058C201.879 170.836 197.669 166.845 196.019 164.002L196.177 137.002C205.372 137.856 211.71 131.427 213.729 128.105C218.209 114.531 212.007 109.095 208.347 108.073C200.744 108.429 199.781 119.19 200.25 124.526C200.627 128.528 197.717 130.178 196.215 130.503L196.356 106.503C195.598 99.2984 191.745 96.8092 189.914 96.4651Z" fill="#E00A17"/>
<path d="M137.31 114.158L127.81 114.102C127.003 115.297 127.468 115.6 127.801 115.602L128.786 118.108L128.459 174.107L142.962 173.692L143.678 136.695L149.225 128.728C152.45 124.346 153.559 128.586 153.71 131.254L153.505 166.253C153.094 168.251 156.636 172.438 158.458 174.282L169.958 174.35C169.158 174.345 168.654 169.342 168.502 166.841L168.248 124.839C167.899 116.037 160.477 114.127 156.809 114.272C153.214 113.451 146.579 125.212 143.71 131.195C144.583 118.8 139.807 114.672 137.31 114.158Z" fill="#E00A17"/>
<path d="M101.834 109.95C86.2176 112.659 83.2668 121.342 83.7434 125.345L83.5387 160.344C88.2661 172.772 99.4555 174.604 104.459 173.967C116.859 174.039 121.682 164.401 122.544 159.572L122.743 125.573C121.22 112.364 108.169 109.654 101.834 109.95Z" fill="#E20A17"/>
<path d="M98.2724 120.43L98.0209 163.429C99.1998 167.036 101.832 167.284 103 166.958C105.396 167.772 107.345 164.983 108.021 163.487L107.775 119.985C108.187 117.987 104.958 117.135 103.293 116.959C99.6928 116.938 98.4459 119.264 98.2724 120.43Z" fill="white"/>
<path d="M25.4052 97.503L12.9054 97.4299C14.0937 99.4368 14.3723 103.105 14.3645 104.439L13.9638 172.937L28.4636 173.022L28.7823 118.523L32.8115 113.547C36.0466 107.565 38.1633 110.411 38.8173 112.582L38.4634 173.081L53.4632 173.168L53.7819 118.669L58.3169 112.696C61.9496 107.117 63.1599 111.057 63.311 113.725L63.5068 165.727C64.6717 171.734 67.9629 173.253 69.4629 173.262L79.4627 173.32C78.2627 173.313 78.0212 163.312 78.0505 158.312L78.3166 112.813C79.1821 101.618 72.4064 97.4445 68.9103 96.7574C62.9151 95.9223 56.3501 107.017 53.817 112.669C53.8966 99.0696 46.9127 96.2954 43.4108 96.6083C38.2085 96.9778 31.5143 107.372 28.8174 112.523C29.2829 101.326 26.7366 97.8441 25.4052 97.503Z" fill="#E00A17"/>
<path d="M34.7998 115.558L39.4411 119.085L41.0272 113.595L37.9311 111.576L34.7998 115.558Z" fill="#E00A17"/>
<path d="M4.37927 101.88L3.90552 182.879L61.4104 182.215L61.4367 177.715C67.4179 180.95 68.5837 181.09 68.419 180.756L90.4099 182.385L90.4304 178.885C103.2 184.159 114.427 179.525 118.444 176.548L118.409 182.548L143.409 182.695L143.491 168.695C146.429 179.212 155.751 181.267 157.917 181.279L181.408 182.917L179.458 174.405C191.388 186.475 212.752 181.267 217.443 177.128L217.416 181.627L250.407 183.32L250.635 144.321C257.423 146.361 261.791 146.22 263.126 145.894L263.039 160.894C272.061 191.347 300.407 183.446 313.453 175.689C323.782 187.75 336.41 183.157 341.432 179.353C340.609 183.348 376.406 183.891 394.408 183.663C387.631 179.623 388.161 140.292 389.273 121.132C392.635 93.5508 376.473 86.8894 367.972 87.0064C353.184 84.9199 353.735 99.09 355.859 106.436C337.92 95.9308 321.361 105.901 315.324 112.199C296.644 91.6893 277.214 102.476 269.834 110.433C260.702 98.7792 249.37 104.146 244.846 108.287C233.293 100.219 224.042 103.165 220.861 105.646C216.512 96.8207 207.743 97.2361 203.902 98.547C201.163 88.1308 193.143 85.8172 189.476 85.9624C167.497 82.2338 168.589 95.007 171.882 101.86L171.827 111.36C163.097 99.3083 151.537 103.907 146.848 107.713C136.492 100.053 125.21 102.753 120.863 105.061C105.721 94.9727 91.5581 100.057 86.3691 103.86C80.5072 80.2249 62.6483 84.5539 54.4515 89.6727C46.0891 83.2237 35.6341 86.8959 31.4519 89.5382C25.0778 85.1008 19.1432 85.2995 16.9726 85.9534C0.979933 84.6599 1.91343 96.0322 4.37927 101.88Z" stroke="black" stroke-width="4"/>
<path d="M358.843 107.198L363.354 109.235" stroke="black" stroke-width="4"/>
<path d="M169.757 37.8462L193.756 37.9866M181.323 18.8963C179.299 17.466 174.846 17.2457 172.376 17.3612C160.337 24.0909 166.278 34.1592 170.754 38.3521C161.512 45.4981 164.837 52.651 167.654 55.3342C174.017 61.7716 181.65 56.0828 184.672 52.4337L178.622 60.8985C177.785 67.2937 182.563 70.9217 185.057 71.9363C191.039 75.1713 197.569 70.0094 200.086 67.0241M181.323 18.8963C181.896 19.3007 182.274 19.8019 182.359 20.4196C182.014 19.9832 181.66 19.4698 181.323 18.8963ZM181.323 18.8963C179.078 15.0688 177.623 8.56623 184.952 4.43453C187.63 2.61683 194.173 0.9884 198.926 9.01634M198.926 9.01634L199.291 32.0189M198.926 9.01634C202.615 5.20452 211.482 -0.610384 217.44 6.62459C218.765 8.13236 221.105 12.6461 219.87 18.639M219.87 18.639L215.346 22.6126M219.87 18.639C223.044 17.3242 230.284 16.2999 233.846 22.7208C234.991 26.3942 235.578 34.4311 228.761 37.1913M228.761 37.1913L205.256 38.0539M228.761 37.1913C231.252 38.8726 235.719 44.4321 233.668 53.2203C232.148 56.5448 226.319 61.4775 215.159 54.6121C218.809 57.4668 223.9 64.7634 215.063 71.1118C212.384 73.2628 205.637 75.4567 200.086 67.0241M200.086 67.0241L199.227 43.0187" stroke="black" stroke-width="4.5"/>
<circle cx="186.838" cy="23.9459" r="5.5" transform="rotate(0.335115 186.838 23.9459)" fill="black"/>
<path d="M218.18 51.1297C218.162 54.1672 215.685 56.6152 212.648 56.5974C209.61 56.5796 207.162 54.1029 207.18 51.0653C207.198 48.0278 209.675 45.5798 212.712 45.5976C215.75 45.6154 218.198 48.0922 218.18 51.1297Z" fill="black"/>
<circle cx="186.68" cy="50.9454" r="5.5" transform="rotate(0.335115 186.68 50.9454)" fill="black"/>
<circle cx="212.832" cy="25.0979" r="5.5" transform="rotate(0.335115 212.832 25.0979)" fill="black"/>
<circle cx="199.756" cy="38.0217" r="9.5" transform="rotate(0.335115 199.756 38.0217)" fill="black"/>
<circle cx="199.756" cy="38.0217" r="5.5" transform="rotate(0.335115 199.756 38.0217)" fill="#FFFDFD"/>
<path d="M190.5 36H171.5C170.7 35.6 168.667 32.8333 168 31.5C165.2 26.3 169.833 21.1667 172.5 19.5C178.9 19.1 181.333 21.1667 181.5 22.5V25.5C182.7 29.1 186 29.6666 187.5 29.5C193.1 27.5 192.333 23.6666 191.5 22C189.9 17.6 186.333 18.1667 184.5 19C183 18.5 181.5 14.3333 181 12.5C183 6.49999 185.333 5.83333 187 4.99999C191.8 3.79999 196 7.16665 197 8.99998V29C193.8 29.4 191.333 34 190.5 36Z" fill="#E00A17"/>
</svg>
